<mxfile host="app.diagrams.net" modified="2021-02-15T05:24:45.038Z" agent="5.0 (X11; Linux x86_64) AppleWebKit/537.36 (KHTML, like Gecko) Chrome/87.0.4280.141 Safari/537.36" etag="S4hkJCb064Pr98v4oayc" version="14.3.1" type="github">
  <diagram id="R2lEEEUBdFMjLlhIrx00" name="Page-1">
    <mxGraphModel dx="796" dy="1594" grid="1" gridSize="10" guides="1" tooltips="1" connect="1" arrows="1" fold="1" page="1" pageScale="1" pageWidth="850" pageHeight="1100" math="0" shadow="0" extFonts="Permanent Marker^https://fonts.googleapis.com/css?family=Permanent+Marker">
      <root>
        <mxCell id="0" />
        <mxCell id="1" parent="0" />
        <mxCell id="oBQksIXjdoRNrCSl-Oam-23" style="edgeStyle=orthogonalEdgeStyle;rounded=0;orthogonalLoop=1;jettySize=auto;html=1;entryX=0;entryY=0.5;entryDx=0;entryDy=0;" edge="1" parent="1" source="oBQksIXjdoRNrCSl-Oam-2" target="oBQksIXjdoRNrCSl-Oam-14">
          <mxGeometry relative="1" as="geometry" />
        </mxCell>
        <mxCell id="oBQksIXjdoRNrCSl-Oam-25" style="edgeStyle=orthogonalEdgeStyle;rounded=0;orthogonalLoop=1;jettySize=auto;html=1;exitX=0.5;exitY=1;exitDx=0;exitDy=0;entryX=0.75;entryY=0;entryDx=0;entryDy=0;" edge="1" parent="1" source="oBQksIXjdoRNrCSl-Oam-2" target="oBQksIXjdoRNrCSl-Oam-9">
          <mxGeometry relative="1" as="geometry" />
        </mxCell>
        <mxCell id="oBQksIXjdoRNrCSl-Oam-29" style="edgeStyle=orthogonalEdgeStyle;rounded=0;orthogonalLoop=1;jettySize=auto;html=1;exitX=0.75;exitY=1;exitDx=0;exitDy=0;entryX=0.5;entryY=0;entryDx=0;entryDy=0;" edge="1" parent="1" source="oBQksIXjdoRNrCSl-Oam-2" target="oBQksIXjdoRNrCSl-Oam-11">
          <mxGeometry relative="1" as="geometry" />
        </mxCell>
        <mxCell id="oBQksIXjdoRNrCSl-Oam-30" style="edgeStyle=orthogonalEdgeStyle;rounded=0;orthogonalLoop=1;jettySize=auto;html=1;exitX=1;exitY=0.75;exitDx=0;exitDy=0;" edge="1" parent="1" source="oBQksIXjdoRNrCSl-Oam-2" target="oBQksIXjdoRNrCSl-Oam-12">
          <mxGeometry relative="1" as="geometry" />
        </mxCell>
        <mxCell id="oBQksIXjdoRNrCSl-Oam-2" value="Family" style="rounded=0;whiteSpace=wrap;html=1;" vertex="1" parent="1">
          <mxGeometry x="700" y="60" width="40" height="40" as="geometry" />
        </mxCell>
        <mxCell id="oBQksIXjdoRNrCSl-Oam-3" value="corpes" style="rounded=0;whiteSpace=wrap;html=1;" vertex="1" parent="1">
          <mxGeometry x="580" y="100" width="60" height="30" as="geometry" />
        </mxCell>
        <mxCell id="oBQksIXjdoRNrCSl-Oam-5" value="Graveyard" style="rounded=0;whiteSpace=wrap;html=1;" vertex="1" parent="1">
          <mxGeometry x="40" y="330" width="60" height="30" as="geometry" />
        </mxCell>
        <mxCell id="oBQksIXjdoRNrCSl-Oam-6" value="Digger" style="rounded=0;whiteSpace=wrap;html=1;" vertex="1" parent="1">
          <mxGeometry x="575" y="70" width="70" height="20" as="geometry" />
        </mxCell>
        <mxCell id="oBQksIXjdoRNrCSl-Oam-7" value="Eidgah" style="rounded=0;whiteSpace=wrap;html=1;" vertex="1" parent="1">
          <mxGeometry x="10" y="430" width="80" height="20" as="geometry" />
        </mxCell>
        <mxCell id="oBQksIXjdoRNrCSl-Oam-8" value="Imam" style="rounded=0;whiteSpace=wrap;html=1;" vertex="1" parent="1">
          <mxGeometry x="595" y="145" width="50" height="20" as="geometry" />
        </mxCell>
        <mxCell id="oBQksIXjdoRNrCSl-Oam-26" style="edgeStyle=orthogonalEdgeStyle;rounded=0;orthogonalLoop=1;jettySize=auto;html=1;exitX=0.75;exitY=0;exitDx=0;exitDy=0;" edge="1" parent="1" source="oBQksIXjdoRNrCSl-Oam-9">
          <mxGeometry relative="1" as="geometry">
            <mxPoint x="715" y="100" as="targetPoint" />
          </mxGeometry>
        </mxCell>
        <mxCell id="oBQksIXjdoRNrCSl-Oam-9" value="Muyazzin" style="rounded=0;whiteSpace=wrap;html=1;" vertex="1" parent="1">
          <mxGeometry x="670" y="130" width="60" height="30" as="geometry" />
        </mxCell>
        <mxCell id="oBQksIXjdoRNrCSl-Oam-10" value="People" style="rounded=0;whiteSpace=wrap;html=1;" vertex="1" parent="1">
          <mxGeometry x="575" y="30" width="60" height="30" as="geometry" />
        </mxCell>
        <mxCell id="oBQksIXjdoRNrCSl-Oam-27" style="edgeStyle=orthogonalEdgeStyle;rounded=0;orthogonalLoop=1;jettySize=auto;html=1;exitX=0;exitY=0;exitDx=0;exitDy=0;entryX=0;entryY=0;entryDx=0;entryDy=0;" edge="1" parent="1" source="oBQksIXjdoRNrCSl-Oam-11" target="oBQksIXjdoRNrCSl-Oam-11">
          <mxGeometry relative="1" as="geometry" />
        </mxCell>
        <mxCell id="oBQksIXjdoRNrCSl-Oam-28" style="edgeStyle=orthogonalEdgeStyle;rounded=0;orthogonalLoop=1;jettySize=auto;html=1;exitX=0.5;exitY=0;exitDx=0;exitDy=0;entryX=0.75;entryY=1;entryDx=0;entryDy=0;" edge="1" parent="1" source="oBQksIXjdoRNrCSl-Oam-11" target="oBQksIXjdoRNrCSl-Oam-2">
          <mxGeometry relative="1" as="geometry" />
        </mxCell>
        <mxCell id="oBQksIXjdoRNrCSl-Oam-11" value="Qari" style="rounded=0;whiteSpace=wrap;html=1;" vertex="1" parent="1">
          <mxGeometry x="740" y="130" width="40" height="30" as="geometry" />
        </mxCell>
        <mxCell id="oBQksIXjdoRNrCSl-Oam-31" style="edgeStyle=orthogonalEdgeStyle;rounded=0;orthogonalLoop=1;jettySize=auto;html=1;exitX=0.5;exitY=0;exitDx=0;exitDy=0;entryX=1;entryY=0.75;entryDx=0;entryDy=0;" edge="1" parent="1" source="oBQksIXjdoRNrCSl-Oam-12" target="oBQksIXjdoRNrCSl-Oam-2">
          <mxGeometry relative="1" as="geometry" />
        </mxCell>
        <mxCell id="oBQksIXjdoRNrCSl-Oam-12" value="Burier" style="rounded=0;whiteSpace=wrap;html=1;" vertex="1" parent="1">
          <mxGeometry x="800" y="130" width="60" height="30" as="geometry" />
        </mxCell>
        <mxCell id="oBQksIXjdoRNrCSl-Oam-13" value="Coffin_carrier" style="rounded=0;whiteSpace=wrap;html=1;" vertex="1" parent="1">
          <mxGeometry x="120" y="230" width="70" height="30" as="geometry" />
        </mxCell>
        <mxCell id="oBQksIXjdoRNrCSl-Oam-24" style="edgeStyle=orthogonalEdgeStyle;rounded=0;orthogonalLoop=1;jettySize=auto;html=1;exitX=0;exitY=0.5;exitDx=0;exitDy=0;entryX=1;entryY=0.5;entryDx=0;entryDy=0;" edge="1" parent="1" source="oBQksIXjdoRNrCSl-Oam-14" target="oBQksIXjdoRNrCSl-Oam-2">
          <mxGeometry relative="1" as="geometry" />
        </mxCell>
        <mxCell id="oBQksIXjdoRNrCSl-Oam-14" value="Washer" style="rounded=0;whiteSpace=wrap;html=1;" vertex="1" parent="1">
          <mxGeometry x="790" y="70" width="60" height="30" as="geometry" />
        </mxCell>
        <mxCell id="oBQksIXjdoRNrCSl-Oam-15" value="Coffin" style="rounded=0;whiteSpace=wrap;html=1;" vertex="1" parent="1">
          <mxGeometry x="130" y="140" width="50" height="30" as="geometry" />
        </mxCell>
        <mxCell id="oBQksIXjdoRNrCSl-Oam-16" value="Cafn" style="rounded=0;whiteSpace=wrap;html=1;" vertex="1" parent="1">
          <mxGeometry x="220" y="460" width="50" height="20" as="geometry" />
        </mxCell>
        <mxCell id="oBQksIXjdoRNrCSl-Oam-17" value="shrouder" style="rounded=0;whiteSpace=wrap;html=1;" vertex="1" parent="1">
          <mxGeometry x="575" y="-10" width="60" height="30" as="geometry" />
        </mxCell>
        <mxCell id="oBQksIXjdoRNrCSl-Oam-18" value="&lt;p style=&quot;margin-bottom: 0in ; line-height: 1px ; background: transparent&quot;&gt;&lt;font style=&quot;font-size: 12px&quot;&gt;people_eidgah&lt;/font&gt;&lt;/p&gt;" style="rounded=0;whiteSpace=wrap;html=1;" vertex="1" parent="1">
          <mxGeometry x="210" y="250" width="90" height="20" as="geometry" />
        </mxCell>
        <mxCell id="oBQksIXjdoRNrCSl-Oam-19" value="&lt;p style=&quot;margin-bottom: 0in ; line-height: 1px ; background: transparent&quot;&gt;&lt;font style=&quot;font-size: 12px&quot;&gt;people_muyazzin&lt;/font&gt;&lt;/p&gt;" style="rounded=0;whiteSpace=wrap;html=1;" vertex="1" parent="1">
          <mxGeometry x="200" y="300" width="90" height="50" as="geometry" />
        </mxCell>
        <mxCell id="oBQksIXjdoRNrCSl-Oam-32" value="" style="endArrow=classic;startArrow=classic;html=1;" edge="1" parent="1">
          <mxGeometry width="50" height="50" relative="1" as="geometry">
            <mxPoint x="650" y="120" as="sourcePoint" />
            <mxPoint x="700" y="70" as="targetPoint" />
            <Array as="points">
              <mxPoint x="640" y="120" />
              <mxPoint x="670" y="120" />
            </Array>
          </mxGeometry>
        </mxCell>
        <mxCell id="oBQksIXjdoRNrCSl-Oam-33" value="" style="endArrow=classic;startArrow=classic;html=1;exitX=1;exitY=0.5;exitDx=0;exitDy=0;" edge="1" parent="1" source="oBQksIXjdoRNrCSl-Oam-6">
          <mxGeometry width="50" height="50" relative="1" as="geometry">
            <mxPoint x="660" y="90" as="sourcePoint" />
            <mxPoint x="700" y="80" as="targetPoint" />
            <Array as="points">
              <mxPoint x="670" y="90" />
              <mxPoint x="690" y="80" />
            </Array>
          </mxGeometry>
        </mxCell>
        <mxCell id="oBQksIXjdoRNrCSl-Oam-34" value="" style="endArrow=classic;startArrow=classic;html=1;entryX=0;entryY=1;entryDx=0;entryDy=0;" edge="1" parent="1" target="oBQksIXjdoRNrCSl-Oam-2">
          <mxGeometry width="50" height="50" relative="1" as="geometry">
            <mxPoint x="645" y="150" as="sourcePoint" />
            <mxPoint x="695" y="100" as="targetPoint" />
          </mxGeometry>
        </mxCell>
        <mxCell id="oBQksIXjdoRNrCSl-Oam-35" value="" style="endArrow=classic;startArrow=classic;html=1;" edge="1" parent="1">
          <mxGeometry width="50" height="50" relative="1" as="geometry">
            <mxPoint x="635" y="10" as="sourcePoint" />
            <mxPoint x="700" y="70" as="targetPoint" />
          </mxGeometry>
        </mxCell>
        <mxCell id="oBQksIXjdoRNrCSl-Oam-36" value="" style="endArrow=classic;startArrow=classic;html=1;" edge="1" parent="1">
          <mxGeometry width="50" height="50" relative="1" as="geometry">
            <mxPoint x="635" y="50" as="sourcePoint" />
            <mxPoint x="700" y="70" as="targetPoint" />
          </mxGeometry>
        </mxCell>
      </root>
    </mxGraphModel>
  </diagram>
</mxfile>
